# xmcd
#
# Track frame offsets: 
#        150
#        11543
#        24830
#        36398
#        47461
#        59376
#        77584
#        87897
#        100448
#        113376
#        125927
#        136941
#        147224
#        158277
#        170928
#        183440
#        192861
#        204773
#
# Disc length: 2886 seconds
#
# Revision: 2
# Processed by: cddbd v1.5.2PL0 Copyright (c) Steve Scherf et al.
# Submitted via: ExactAudioCopy v0.90b4
#
DISCID=e40b4412
DTITLE=Various Artist - Northern Soul - The Solid Gold Collection [CD2]
DYEAR=2005
DGENRE=Soul
TTITLE0=The Admirations - Don't Leave Me
TTITLE1=Jerry Fuller - Double Life
TTITLE2=Otis Clay - Got To Find A Way
TTITLE3=Betty Everett - I've Got A Claim On You
TTITLE4=The Sharpees - I've Got A Secret
TTITLE5=The Skullsnaps - I'm Your Pimp
TTITLE6=Otis Clay - Show Place
TTITLE7=Betty Everett - I'll Be There
TTITLE8=Cicero Blake - Sad Feeling
TTITLE9=Liz Lands - One Man's Poison
TTITLE10=The Accents - You Better Think Again
TTITLE11=Otis Clay - I Testify
TTITLE12=The Admirations - Wait Til I Get To Know You
TTITLE13=Beverly Shaffer - Even The Score
TTITLE14=Joe and Mack - Don't You Worry
TTITLE15=The Accents - New Girl
TTITLE16=The Sharpees - Tired Of Being Lonely
TTITLE17=Otis Clay - That's How It Is When You're In Love
EXTD=
EXTT0=
EXTT1=
EXTT2=
EXTT3=
EXTT4=
EXTT5=
EXTT6=
EXTT7=
EXTT8=
EXTT9=
EXTT10=
EXTT11=
EXTT12=
EXTT13=
EXTT14=
EXTT15=
EXTT16=
EXTT17=
PLAYORDER=
